HIERARCHY
ROOT Hips
{
    OFFSET 0.000000 0.000000 0.000000
    CHANNELS 6 Xposition Yposition Zposition Zrotation Xrotation Yrotation
        JOINT Chest
        {
            OFFSET -0.000000 28.502190 -0.000000
            CHANNELS 3 Zrotation Xrotation Yrotation
            JOINT Neck
            {
                OFFSET -0.000000 21.060717 0.000000
                CHANNELS 3 Zrotation Xrotation Yrotation
                JOINT Head
                {
                    OFFSET -0.000000 9.900002 0.000000
                    CHANNELS 3 Zrotation Xrotation Yrotation
                    End Site
                    {
                        OFFSET -0.000000 15.300010 0.000000
                    }
                }
            }
            JOINT LeftCollar
            {
                OFFSET -0.000000 21.060717 0.000000
                CHANNELS 3 Zrotation Xrotation Yrotation
                JOINT LeftShoulder
                {
                    OFFSET 18.000004 -0.000000 0.000000
                    CHANNELS 3 Zrotation Xrotation Yrotation
                    JOINT LeftElbow
                    {
                        OFFSET 21.585543 0.000000 0.000000
                        CHANNELS 3 Zrotation Xrotation Yrotation
                        JOINT LeftWrist
                        {
                            OFFSET 21.310946 0.000000 0.000000
                            CHANNELS 3 Zrotation Xrotation Yrotation
                            End Site
                            {
                                OFFSET 0.000000 -13.500002 0.000000
                            }
                        }
                    }
                }
            }
            JOINT RightCollar
            {
                OFFSET -0.000000 21.060717 0.000000
                CHANNELS 3 Zrotation Xrotation Yrotation
                JOINT RightShoulder
                {
                    OFFSET -18.000004 0.000000 0.000000
                    CHANNELS 3 Zrotation Xrotation Yrotation
                    JOINT RightElbow
                    {
                        OFFSET -21.585543 0.000000 0.000000
                        CHANNELS 3 Zrotation Xrotation Yrotation
                        JOINT RightWrist
                        {
                            OFFSET -21.310946 0.000000 0.000000
                            CHANNELS 3 Zrotation Xrotation Yrotation
                            End Site
                            {
                                OFFSET -0.000000 -13.500002 0.000000
                            }
                        }
                    }
                }
            }
        }
    JOINT LeftHip
    {
        OFFSET 10.800001 0.000000 0.000000
        CHANNELS 3 Zrotation Xrotation Yrotation
        JOINT LeftKnee
        {
            OFFSET -0.000000 -36.918850 0.000000
            CHANNELS 3 Zrotation Xrotation Yrotation
            JOINT LeftAnkle
            {
                OFFSET -0.000000 -34.060452 0.000000
                CHANNELS 3 Zrotation Xrotation Yrotation
                End Site
                {
                    OFFSET -0.000000 -4.500001 15.300010
                }
            }
        }
    }
    JOINT RightHip
    {
        OFFSET -10.800001 0.000000 0.000000
        CHANNELS 3 Zrotation Xrotation Yrotation
        JOINT RightKnee
        {
            OFFSET -0.000000 -36.918850 0.000000
            CHANNELS 3 Zrotation Xrotation Yrotation
            JOINT RightAnkle
            {
                OFFSET -0.000000 -34.060452 0.000000
                CHANNELS 3 Zrotation Xrotation Yrotation
                End Site
                {
                    OFFSET -0.000000 -4.500001 15.300010
                }
            }
        }
    }
}
MOTION
Frames:    5
Frame Time:    0.010000
120.680260    78.544113    -92.309135    1.770597    4.352766    -21.236250    2.537292    5.829308    -3.576494    8.377562    12.215399    -3.876399    -12.276102    -25.726833    -5.755135    -20.290422    -0.799159    4.629553    -39.254105    41.208130    -19.301296    20.561050    -17.031731    -78.658195    106.979469    18.627678    63.526924    7.503295    -1.105349    -15.135463    31.106501    51.844868    36.993271    -10.752950    -6.998950    71.571136    -96.024788    -22.602314    -28.318226    -4.023303    -13.227945    1.489895    1.040024    31.654646    7.133606    -4.135988    -15.849399    0.093663    -9.354686    -11.818075    -8.918674    -14.054257    31.486437    0.580419    -2.970342    -6.934136    4.394465    
120.507767    78.112198    -92.789116    2.150745    4.170884    -22.547029    1.956885    5.613562    -3.301231    8.131933    12.484192    -3.463454    -11.854880    -25.668652    -5.245416    -20.669350    -0.864421    4.690403    -39.378334    41.461723    -18.940580    20.762758    -17.149708    -78.420120    107.512878    18.038038    63.524826    8.035270    -1.124867    -14.472594    31.778847    51.343628    35.865726    -9.838470    -6.386882    71.147614    -95.907501    -23.438618    -26.289007    -4.125043    -13.906206    1.497305    0.734176    32.818642    8.147560    -4.404972    -17.154505    0.685063    -10.300115    -11.472488    -9.531161    -13.786144    30.924093    0.916484    -1.133505    -8.087645    4.208312    
120.313667    77.773666    -93.277763    2.509330    4.040175    -23.895702    1.391885    5.341895    -2.905227    8.039626    12.802710    -3.091510    -11.592161    -25.725662    -4.809069    -21.001051    -0.847335    4.720181    -39.485092    41.770893    -18.695320    20.805235    -17.021835    -78.255737    108.638237    17.747015    63.066166    8.502433    -1.132938    -13.871123    32.476463    51.095650    34.836155    -9.178111    -6.005422    70.533325    -95.723389    -24.259315    -24.281742    -4.138053    -14.652794    1.417534    0.267871    33.884899    9.498981    -4.767662    -18.185757    1.177009    -11.038020    -11.282550    -9.813601    -13.423600    30.288633    1.214588    1.192551    -9.350826    4.039103    
120.095001    77.522194    -93.767532    2.827769    3.938734    -25.280222    0.854936    5.010581    -2.407689    8.102894    13.250267    -2.765898    -11.500138    -25.949345    -4.445195    -21.254219    -0.907930    4.717652    -39.667778    42.300003    -18.478355    20.863092    -17.013058    -78.103737    110.055000    17.717485    61.898476    8.896112    -1.132842    -13.370983    33.082253    51.206738    34.017426    -8.848433    -5.900334    69.732971    -95.542488    -25.017441    -22.503820    -4.049753    -15.397656    1.297390    -0.327614    34.795494    11.158350    -5.202982    -18.938316    1.527077    -11.546618    -11.211989    -9.750509    -12.990746    29.593103    1.464279    3.837947    -10.697979    3.927163    
119.849419    77.347656    -94.251190    3.091367    3.842599    -26.693909    0.355858    4.632869    -1.838469    8.302039    13.860793    -2.478867    -11.573536    -26.346813    -4.146842    -21.422075    -0.887377    4.701859    -39.954460    42.864124    -18.226542    20.685858    -16.742588    -78.080475    112.042946    18.166584    60.243713    9.211199    -1.125401    -13.009497    33.473297    51.746304    33.532791    -8.885593    -6.094541    68.758217    -95.443130    -25.674067    -21.144117    -3.857839    -16.073942    1.168603    -1.009193    35.515190    13.067557    -5.692843    -19.424294    1.718989    -11.824723    -11.215844    -9.360410    -12.517358    28.843740    1.654567    6.572882    -12.076353    3.921325    
